# Blender v2.80 (sub 75) OBJ File: ''
# www.blender.org
o Sphere
v 0.413788 1.847759 -0.643868
v 0.764581 1.414214 -1.189712
v 0.998974 0.765367 -1.554434
v 1.081281 -0.000000 -1.682507
v 0.998974 -0.765367 -1.554434
v 0.764581 -1.414214 -1.189712
v 0.413788 -1.847759 -0.643868
v -0.000000 2.000000 -0.000000
v 0.696202 1.847759 -0.317945
v 1.286414 1.414214 -0.587486
v 1.680780 0.765367 -0.767587
v 1.819264 -0.000000 -0.830830
v 1.680780 -0.765367 -0.767587
v 1.286414 -1.414214 -0.587486
v 0.696202 -1.847759 -0.317945
v 0.757576 1.847759 0.108923
v 1.399819 1.414214 0.201263
v 1.828951 0.765367 0.262963
v 1.979643 -0.000000 0.284629
v 1.828951 -0.765367 0.262963
v 1.399819 -1.414214 0.201263
v 0.757576 -1.847759 0.108923
v 0.578425 1.847759 0.501208
v 1.068791 1.414214 0.926112
v 1.396443 0.765367 1.210024
v 1.511499 -0.000000 1.309721
v 1.396443 -0.765367 1.210024
v 1.068791 -1.414214 0.926112
v 0.578426 -1.847759 0.501208
v 0.215629 1.847759 0.734363
v 0.398430 1.414214 1.356927
v 0.520574 0.765367 1.772911
v 0.563465 -0.000000 1.918985
v 0.520574 -0.765367 1.772911
v 0.398430 -1.414214 1.356927
v 0.215629 -1.847759 0.734363
v -0.215628 1.847759 0.734363
v -0.398430 1.414214 1.356928
v -0.520573 0.765367 1.772911
v -0.563465 -0.000000 1.918985
v -0.520573 -0.765367 1.772911
v -0.398430 -1.414214 1.356928
v -0.215628 -1.847759 0.734364
v 0.000000 -2.000000 -0.000000
v -0.578425 1.847759 0.501208
v -1.068791 1.414214 0.926113
v -1.396442 0.765367 1.210024
v -1.511498 -0.000000 1.309721
v -1.396442 -0.765367 1.210024
v -1.068791 -1.414214 0.926113
v -0.578425 -1.847759 0.501208
v -0.757576 1.847759 0.108923
v -1.399818 1.414214 0.201264
v -1.828951 0.765367 0.262964
v -1.979642 -0.000000 0.284630
v -1.828951 -0.765367 0.262964
v -1.399818 -1.414214 0.201264
v -0.757576 -1.847759 0.108923
v -0.696202 1.847759 -0.317945
v -1.286414 1.414214 -0.587485
v -1.680780 0.765367 -0.767586
v -1.819263 -0.000000 -0.830830
v -1.680780 -0.765367 -0.767586
v -1.286414 -1.414214 -0.587485
v -0.696202 -1.847759 -0.317945
v -0.413788 1.847759 -0.643867
v -0.764582 1.414214 -1.189712
v -0.998974 0.765367 -1.554433
v -1.081281 -0.000000 -1.682506
v -0.998974 -0.765367 -1.554433
v -0.764582 -1.414214 -1.189712
v -0.413789 -1.847759 -0.643867
v -0.000000 1.847759 -0.765366
v -0.000001 1.414214 -1.414213
v -0.000001 0.765367 -1.847758
v -0.000000 -0.000000 -1.999999
v -0.000001 -0.765367 -1.847758
v -0.000001 -1.414214 -1.414213
v -0.000000 -1.847759 -0.765367
vt 0.096295 0.556140
vt 0.134231 0.656155
vt 0.096268 0.703094
vt 0.026149 0.642871
vt 0.164409 0.096761
vt 0.164409 0.000000
vt 0.254209 0.036798
vt 0.213009 0.116677
vt 0.423456 0.663898
vt 0.514962 0.656804
vt 0.514962 0.843196
vt 0.423456 0.836102
vt 0.599574 0.663898
vt 0.664409 0.684100
vt 0.664409 0.815900
vt 0.599574 0.836102
vt 0.173561 0.771911
vt 0.164409 0.218846
vt 0.338985 0.684100
vt 0.338985 0.815900
vt 0.500583 1.000000
vt 0.410171 0.980970
vt 0.918647 0.519030
vt 1.000000 0.573223
vt 0.989833 0.684100
vt 0.905362 0.663898
vt 0.082116 0.771582
vt 0.246178 0.170099
vt 0.328818 0.926777
vt 0.828235 0.500000
vt 0.813856 0.656804
vt 0.000000 0.769422
vt 0.315499 0.135511
vt 0.253386 0.240068
vt 0.664409 0.684100
vt 0.729244 0.663898
vt 0.729244 0.836102
vt 0.664409 0.815900
vt 0.905362 0.836102
vt 0.813856 0.843196
vt 0.096268 0.839876
vt 0.026149 0.895613
vt 0.328818 0.264796
vt 0.989833 0.815900
vt 0.918647 0.980970
vt 0.828235 1.000000
vt 0.134231 0.886293
vt 0.096295 0.981380
vt 0.289939 0.383608
vt 0.232345 0.304369
vt 0.742529 0.980970
vt 1.000000 0.926777
vt 0.674576 0.926777
vt 0.211205 0.454224
vt 0.189735 0.342586
vt 0.921880 0.480970
vt 0.836174 0.500000
vt 0.850553 0.343196
vt 0.935165 0.336102
vt 0.745762 0.480970
vt 0.664409 0.426777
vt 0.674576 0.315900
vt 0.759047 0.336102
vt 0.183951 0.896095
vt 0.328421 0.444501
vt 0.225550 0.536765
vt 0.188166 0.999492
vt 0.674576 0.184100
vt 0.759047 0.163898
vt 0.229643 0.866171
vt 0.139083 0.342586
vt 1.000000 0.315900
vt 0.935165 0.163898
vt 1.000000 0.184100
vt 0.850553 0.156804
vt 0.272595 0.944199
vt 0.117613 0.454224
vt 0.096473 0.304369
vt 0.103267 0.536765
vt 0.000397 0.444501
vt 0.038879 0.383608
vt 0.745762 0.019030
vt 0.836174 0.000000
vt 0.256801 0.806021
vt 0.322775 0.833056
vt 0.921880 0.019030
vt 0.664409 0.073223
vt 0.256801 0.734742
vt 0.322775 0.701350
vt 0.000000 0.264796
vt 0.075431 0.240068
vt 0.406938 0.019030
vt 0.492644 0.000000
vt 0.478265 0.156804
vt 0.393653 0.163898
vt 0.583056 0.019030
vt 0.654242 0.184100
vt 0.569771 0.163898
vt 0.338985 0.073223
vt 0.328818 0.184100
vt 0.013319 0.135511
vt 0.082640 0.170099
vt 0.478265 0.343196
vt 0.393653 0.336102
vt 0.654242 0.315900
vt 0.569771 0.336102
vt 0.229643 0.674965
vt 0.328818 0.315900
vt 0.272595 0.590897
vt 0.183951 0.645669
vt 0.115809 0.116677
vt 0.406938 0.480970
vt 0.338985 0.426777
vt 0.583056 0.480970
vt 0.492644 0.500000
vt 0.188166 0.536765
vt 0.074609 0.036799
vt 0.664409 0.426777
vt 0.328818 0.573223
vt 0.410171 0.519030
vt 0.500583 0.500000
vt 0.586289 0.519030
vt 0.654242 0.573223
vn 0.1610 0.8206 -0.5483
vn 0.1610 -0.8206 -0.5483
vn 0.2767 -0.1875 -0.9425
vn 0.2372 0.5397 -0.8077
vn 0.0572 0.9792 -0.1948
vn 0.0572 -0.9792 -0.1948
vn 0.2372 -0.5397 -0.8077
vn 0.2767 0.1875 -0.9425
vn 0.7424 -0.1875 -0.6433
vn 0.6362 0.5397 -0.5513
vn 0.1534 0.9792 -0.1329
vn 0.1534 -0.9792 -0.1329
vn 0.6362 -0.5397 -0.5513
vn 0.7424 0.1875 -0.6433
vn 0.4319 0.8206 -0.3742
vn 0.4319 -0.8206 -0.3742
vn 0.2009 -0.9792 -0.0289
vn 0.8333 -0.5397 -0.1198
vn 0.9723 0.1875 -0.1398
vn 0.5657 0.8206 -0.0813
vn 0.5657 -0.8206 -0.0813
vn 0.9723 -0.1875 -0.1398
vn 0.8333 0.5397 -0.1198
vn 0.2009 0.9792 -0.0289
vn 0.8935 0.1875 0.4080
vn 0.5198 0.8206 0.2374
vn 0.5198 -0.8206 0.2374
vn 0.8935 -0.1875 0.4080
vn 0.7658 0.5397 0.3497
vn 0.1846 0.9792 0.0843
vn 0.1846 -0.9792 0.0843
vn 0.7658 -0.5397 0.3497
vn 0.3090 -0.8206 0.4808
vn 0.5311 -0.1875 0.8263
vn 0.4551 0.5397 0.7082
vn 0.1097 0.9792 0.1708
vn 0.1097 -0.9792 0.1708
vn 0.4551 -0.5397 0.7082
vn 0.5311 0.1875 0.8263
vn 0.3090 0.8206 0.4808
vn 0.0000 0.5397 0.8418
vn 0.0000 0.9792 0.2030
vn 0.0000 -0.9792 0.2030
vn 0.0000 -0.5397 0.8418
vn 0.0000 0.1875 0.9823
vn 0.0000 0.8206 0.5715
vn 0.0000 -0.8206 0.5715
vn 0.0000 -0.1875 0.9823
vn -0.1097 -0.9792 0.1708
vn -0.4551 -0.5397 0.7082
vn -0.5311 0.1875 0.8263
vn -0.3090 0.8206 0.4808
vn -0.3090 -0.8206 0.4808
vn -0.5311 -0.1875 0.8263
vn -0.4551 0.5397 0.7082
vn -0.1097 0.9792 0.1708
vn -0.5198 0.8206 0.2374
vn -0.5198 -0.8206 0.2374
vn -0.8935 -0.1875 0.4080
vn -0.7658 0.5397 0.3497
vn -0.1846 0.9792 0.0843
vn -0.1846 -0.9792 0.0843
vn -0.7658 -0.5397 0.3497
vn -0.8935 0.1875 0.4080
vn -0.5657 -0.8206 -0.0813
vn -0.9723 -0.1875 -0.1398
vn -0.8333 0.5397 -0.1198
vn -0.2009 0.9792 -0.0289
vn -0.2009 -0.9792 -0.0289
vn -0.8333 -0.5397 -0.1198
vn -0.9723 0.1875 -0.1398
vn -0.5657 0.8206 -0.0813
vn -0.1534 0.9792 -0.1329
vn -0.1534 -0.9792 -0.1329
vn -0.6362 -0.5397 -0.5513
vn -0.7424 0.1875 -0.6433
vn -0.4319 0.8206 -0.3742
vn -0.4319 -0.8206 -0.3742
vn -0.7424 -0.1875 -0.6433
vn -0.6362 0.5397 -0.5513
vn -0.2372 -0.5397 -0.8077
vn -0.2767 0.1875 -0.9425
vn -0.1610 0.8206 -0.5483
vn -0.1610 -0.8206 -0.5483
vn -0.2767 -0.1875 -0.9425
vn -0.2372 0.5397 -0.8077
vn -0.0572 0.9792 -0.1948
vn -0.0572 -0.9792 -0.1948
s off
f 74/1/1 73/2/1 1/3/1 2/4/1
f 79/5/2 78/6/2 6/7/2 7/8/2
f 77/9/3 76/10/3 4/11/3 5/12/3
f 75/13/4 74/14/4 2/15/4 3/16/4
f 73/2/5 8/17/5 1/3/5
f 44/18/6 79/5/6 7/8/6
f 78/19/7 77/9/7 5/12/7 6/20/7
f 76/10/8 75/13/8 3/16/8 4/11/8
f 5/12/9 4/11/9 12/21/9 13/22/9
f 3/23/10 2/24/10 10/25/10 11/26/10
f 1/3/11 8/17/11 9/27/11
f 44/18/12 7/8/12 15/28/12
f 6/20/13 5/12/13 13/22/13 14/29/13
f 4/30/14 3/23/14 11/26/14 12/31/14
f 2/4/15 1/3/15 9/27/15 10/32/15
f 7/8/16 6/7/16 14/33/16 15/28/16
f 44/18/17 15/28/17 22/34/17
f 14/35/18 13/36/18 20/37/18 21/38/18
f 12/31/19 11/26/19 18/39/19 19/40/19
f 10/32/20 9/27/20 16/41/20 17/42/20
f 15/28/21 14/33/21 21/43/21 22/34/21
f 13/36/22 12/31/22 19/40/22 20/37/22
f 11/26/23 10/25/23 17/44/23 18/39/23
f 9/27/24 8/17/24 16/41/24
f 19/40/25 18/39/25 25/45/25 26/46/25
f 17/42/26 16/41/26 23/47/26 24/48/26
f 22/34/27 21/43/27 28/49/27 29/50/27
f 20/37/28 19/40/28 26/46/28 27/51/28
f 18/39/29 17/44/29 24/52/29 25/45/29
f 16/41/30 8/17/30 23/47/30
f 44/18/31 22/34/31 29/50/31
f 21/38/32 20/37/32 27/51/32 28/53/32
f 29/50/33 28/49/33 35/54/33 36/55/33
f 27/56/34 26/57/34 33/58/34 34/59/34
f 25/60/35 24/61/35 31/62/35 32/63/35
f 23/47/36 8/17/36 30/64/36
f 44/18/37 29/50/37 36/55/37
f 28/49/38 27/65/38 34/66/38 35/54/38
f 26/57/39 25/60/39 32/63/39 33/58/39
f 24/48/40 23/47/40 30/64/40 31/67/40
f 32/63/41 31/62/41 38/68/41 39/69/41
f 30/64/42 8/17/42 37/70/42
f 44/18/43 36/55/43 43/71/43
f 35/72/44 34/59/44 41/73/44 42/74/44
f 33/58/45 32/63/45 39/69/45 40/75/45
f 31/67/46 30/64/46 37/70/46 38/76/46
f 36/55/47 35/54/47 42/77/47 43/71/47
f 34/59/48 33/58/48 40/75/48 41/73/48
f 44/18/49 43/71/49 51/78/49
f 42/77/50 41/79/50 49/80/50 50/81/50
f 40/75/51 39/69/51 47/82/51 48/83/51
f 38/76/52 37/70/52 45/84/52 46/85/52
f 43/71/53 42/77/53 50/81/53 51/78/53
f 41/73/54 40/75/54 48/83/54 49/86/54
f 39/69/55 38/68/55 46/87/55 47/82/55
f 37/70/56 8/17/56 45/84/56
f 46/85/57 45/84/57 52/88/57 53/89/57
f 51/78/58 50/81/58 57/90/58 58/91/58
f 49/92/59 48/93/59 55/94/59 56/95/59
f 47/96/60 46/87/60 53/97/60 54/98/60
f 45/84/61 8/17/61 52/88/61
f 44/18/62 51/78/62 58/91/62
f 50/99/63 49/92/63 56/95/63 57/100/63
f 48/93/64 47/96/64 54/98/64 55/94/64
f 58/91/65 57/90/65 64/101/65 65/102/65
f 56/95/66 55/94/66 62/103/66 63/104/66
f 54/98/67 53/97/67 60/105/67 61/106/67
f 52/88/68 8/17/68 59/107/68
f 44/18/69 58/91/69 65/102/69
f 57/100/70 56/95/70 63/104/70 64/108/70
f 55/94/71 54/98/71 61/106/71 62/103/71
f 53/89/72 52/88/72 59/107/72 60/109/72
f 59/107/73 8/17/73 66/110/73
f 44/18/74 65/102/74 72/111/74
f 64/108/75 63/104/75 70/112/75 71/113/75
f 62/103/76 61/106/76 68/114/76 69/115/76
f 60/109/77 59/107/77 66/110/77 67/116/77
f 65/102/78 64/101/78 71/117/78 72/111/78
f 63/104/79 62/103/79 69/115/79 70/112/79
f 61/106/80 60/105/80 67/118/80 68/114/80
f 71/119/81 70/120/81 77/9/81 78/19/81
f 69/121/82 68/122/82 75/13/82 76/10/82
f 67/116/83 66/110/83 73/2/83 74/1/83
f 72/111/84 71/117/84 78/6/84 79/5/84
f 70/120/85 69/121/85 76/10/85 77/9/85
f 68/122/86 67/123/86 74/14/86 75/13/86
f 66/110/87 8/17/87 73/2/87
f 44/18/88 72/111/88 79/5/88
