# Blender v2.80 (sub 75) OBJ File: ''
# www.blender.org
o Torus.001
v 9.224999 0.000001 0.000002
v 9.146078 0.000003 1.204106
v 9.116194 -0.112499 1.200171
v 9.194856 -0.112500 0.000002
v 9.034541 -0.194853 1.189422
v 9.112500 -0.194853 0.000002
v 8.923004 -0.224997 1.174737
v 9.000000 -0.224997 0.000002
v 8.811467 -0.194853 1.160053
v 8.887500 -0.194853 0.000002
v 8.729815 -0.112499 1.149304
v 8.805144 -0.112500 0.000002
v 8.699929 0.000001 1.145369
v 8.775001 0.000000 0.000002
v 8.729815 0.112501 1.149304
v 8.805144 0.112502 0.000002
v 8.811466 0.194857 1.160053
v 8.887500 0.194858 0.000002
v 8.923004 0.225002 1.174737
v 9.000000 0.225003 0.000002
v 9.034541 0.194857 1.189422
v 9.112500 0.194858 0.000002
v 9.116194 0.112501 1.200171
v 9.194856 0.112502 0.000002
v 8.910666 0.000002 2.387606
v 8.881549 -0.112498 2.379805
v 8.801999 -0.194853 2.358490
v 8.693333 -0.224998 2.329372
v 8.584666 -0.194854 2.300255
v 8.505116 -0.112498 2.278940
v 8.476000 0.000002 2.271138
v 8.505116 0.112501 2.278940
v 8.584666 0.194858 2.300255
v 8.693333 0.225003 2.329372
v 8.801999 0.194858 2.358490
v 8.881549 0.112501 2.379805
v 8.522788 0.000002 3.530255
v 8.494939 -0.112498 3.518720
v 8.418852 -0.194855 3.487204
v 8.314914 -0.224997 3.444152
v 8.210979 -0.194855 3.401100
v 8.134892 -0.112498 3.369584
v 8.107042 0.000002 3.358048
v 8.134892 0.112501 3.369584
v 8.210979 0.194858 3.401100
v 8.314915 0.225001 3.444152
v 8.418852 0.194858 3.487204
v 8.494939 0.112501 3.518720
v 7.989082 0.000002 4.612502
v 7.962976 -0.112498 4.597430
v 7.891655 -0.194853 4.556252
v 7.794228 -0.224997 4.500001
v 7.696800 -0.194853 4.443751
v 7.625477 -0.112498 4.402575
v 7.599372 0.000002 4.387503
v 7.625476 0.112501 4.402575
v 7.696800 0.194858 4.443751
v 7.794228 0.225002 4.500001
v 7.891655 0.194858 4.556252
v 7.962977 0.112502 4.597430
v 7.318685 0.000001 5.615825
v 7.294771 -0.112498 5.597474
v 7.229434 -0.194853 5.547338
v 7.140181 -0.224998 5.478851
v 7.050929 -0.194853 5.410367
v 6.985591 -0.112498 5.360230
v 6.961677 0.000002 5.341880
v 6.985591 0.112502 5.360230
v 7.050929 0.194858 5.410367
v 7.140181 0.225002 5.478853
v 7.229434 0.194858 5.547338
v 7.294771 0.112502 5.597474
v 6.523058 0.000002 6.523060
v 6.501743 -0.112499 6.501747
v 6.443511 -0.194853 6.443511
v 6.363959 -0.224998 6.363963
v 6.284410 -0.194855 6.284411
v 6.226177 -0.112498 6.226179
v 6.204862 0.000002 6.204864
v 6.226177 0.112502 6.226179
v 6.284410 0.194858 6.284411
v 6.363959 0.225001 6.363963
v 6.443511 0.194858 6.443511
v 6.501743 0.112502 6.501747
v 5.615824 0.000002 7.318685
v 5.597476 -0.112498 7.294768
v 5.547339 -0.194854 7.229433
v 5.478854 -0.224998 7.140180
v 5.410367 -0.194854 7.050928
v 5.360232 -0.112499 6.985590
v 5.341883 0.000002 6.961676
v 5.360232 0.112501 6.985590
v 5.410367 0.194857 7.050928
v 5.478854 0.225002 7.140180
v 5.547339 0.194857 7.229433
v 5.597475 0.112501 7.294768
v 4.612498 0.000001 7.989085
v 4.597426 -0.112498 7.962978
v 4.556249 -0.194853 7.891655
v 4.499999 -0.224999 7.794230
v 4.443749 -0.194853 7.696801
v 4.402572 -0.112498 7.625480
v 4.387499 0.000002 7.599373
v 4.402572 0.112501 7.625481
v 4.443749 0.194857 7.696802
v 4.499999 0.225002 7.794230
v 4.556249 0.194857 7.891656
v 4.597426 0.112502 7.962978
v 3.530256 0.000001 8.522788
v 3.518721 -0.112499 8.494938
v 3.487205 -0.194853 8.418851
v 3.444153 -0.224998 8.314915
v 3.401101 -0.194853 8.210979
v 3.369585 -0.112499 8.134892
v 3.358049 0.000001 8.107041
v 3.369585 0.112502 8.134892
v 3.401102 0.194858 8.210979
v 3.444153 0.225002 8.314915
v 3.487206 0.194858 8.418851
v 3.518721 0.112502 8.494938
v 2.387605 0.000001 8.910666
v 2.379804 -0.112499 8.881547
v 2.358489 -0.194854 8.801998
v 2.329371 -0.224998 8.693331
v 2.300254 -0.194854 8.584664
v 2.278939 -0.112499 8.505116
v 2.271137 0.000001 8.475999
v 2.278939 0.112502 8.505116
v 2.300254 0.194857 8.584664
v 2.329371 0.225002 8.693331
v 2.358489 0.194857 8.801998
v 2.379804 0.112502 8.881547
v 1.204102 0.000002 9.146076
v 1.200167 -0.112499 9.116191
v 1.189417 -0.194854 9.034539
v 1.174733 -0.224998 8.923002
v 1.160049 -0.194854 8.811465
v 1.149300 -0.112499 8.729814
v 1.145365 0.000001 8.699927
v 1.149300 0.112502 8.729814
v 1.160049 0.194858 8.811465
v 1.174733 0.225002 8.923002
v 1.189418 0.194858 9.034539
v 1.200167 0.112502 9.116191
v 0.000000 0.000002 9.224998
v 0.000000 -0.112499 9.194854
v 0.000000 -0.194854 9.112498
v 0.000000 -0.224999 8.999998
v 0.000000 -0.194854 8.887499
v 0.000000 -0.112499 8.805143
v 0.000000 0.000001 8.774999
v 0.000000 0.112502 8.805143
v 0.000000 0.194857 8.887499
v 0.000000 0.225002 8.999998
v 0.000000 0.194857 9.112498
v 0.000000 0.112502 9.194854
vt 0.480456 0.308085
vt 0.470386 0.275505
vt 0.473204 0.274717
vt 0.483241 0.307190
vt 0.476779 0.273977
vt 0.486726 0.306159
vt 0.480152 0.273483
vt 0.489977 0.305268
vt 0.018070 0.884120
vt 0.008156 0.855713
vt 0.011526 0.854626
vt 0.021316 0.882678
vt 0.015100 0.854206
vt 0.024799 0.881998
vt 0.957770 0.603586
vt 0.957490 0.635679
vt 0.954433 0.635831
vt 0.954712 0.603847
vt 0.950743 0.635892
vt 0.951022 0.603798
vt 0.947407 0.635846
vt 0.947690 0.603452
vt 0.087618 0.076485
vt 0.067024 0.100639
vt 0.065495 0.098734
vt 0.086349 0.074275
vt 0.062786 0.096722
vt 0.083902 0.071957
vt 0.059625 0.095142
vt 0.080931 0.070153
vt 0.056857 0.094416
vt 0.078233 0.069345
vt 0.464274 0.242497
vt 0.467112 0.241818
vt 0.470742 0.241372
vt 0.474190 0.241281
vt 0.002098 0.825560
vt 0.005544 0.824850
vt 0.009173 0.824706
vt 0.958794 0.668000
vt 0.955733 0.668041
vt 0.952047 0.668213
vt 0.948724 0.668469
vt 0.049294 0.127439
vt 0.047540 0.125874
vt 0.044607 0.124202
vt 0.041282 0.122869
vt 0.038454 0.122234
vt 0.462226 0.209627
vt 0.465070 0.209054
vt 0.468718 0.208902
vt 0.472191 0.209212
vt 0.000000 0.794179
vt 0.003472 0.793861
vt 0.007120 0.794004
vt 0.961660 0.699995
vt 0.958589 0.699926
vt 0.954912 0.700207
vt 0.951616 0.700763
vt 0.034732 0.156428
vt 0.032794 0.155230
vt 0.029677 0.153924
vt 0.026216 0.152861
vt 0.023339 0.152324
vt 0.464274 0.177456
vt 0.467112 0.176988
vt 0.470742 0.177124
vt 0.474190 0.177825
vt 0.001897 0.762105
vt 0.005346 0.762188
vt 0.008977 0.762625
vt 0.966038 0.731116
vt 0.962952 0.730941
vt 0.959290 0.731328
vt 0.956035 0.732175
vt 0.023587 0.187109
vt 0.021507 0.186299
vt 0.018249 0.185382
vt 0.014685 0.184603
vt 0.011770 0.184170
vt 0.470386 0.146534
vt 0.473204 0.146168
vt 0.476779 0.146579
vt 0.480152 0.147658
vt 0.007758 0.729888
vt 0.011133 0.730374
vt 0.014710 0.731105
vt 0.017531 0.731886
vt 0.011817 0.763297
vt 0.968747 0.760554
vt 0.965106 0.761044
vt 0.961905 0.762168
vt 0.016049 0.218957
vt 0.013874 0.218550
vt 0.010520 0.218036
vt 0.006886 0.217552
vt 0.003946 0.217228
vt 0.480456 0.117392
vt 0.483241 0.117121
vt 0.486726 0.117792
vt 0.489977 0.119226
vt 0.017482 0.698079
vt 0.020735 0.698962
vt 0.024223 0.699985
vt 0.027011 0.700872
vt 0.975876 0.788260
vt 0.972260 0.788844
vt 0.969126 0.790229
vt 0.012247 0.251427
vt 0.010024 0.251432
vt 0.006622 0.251329
vt 0.002953 0.251145
vt 0.000000 0.250931
vt 0.494311 0.090527
vt 0.497051 0.090344
vt 0.500412 0.091255
vt 0.503494 0.093017
vt 0.030902 0.667222
vt 0.033988 0.668491
vt 0.037353 0.669796
vt 0.040096 0.670786
vt 0.984217 0.813584
vt 0.980629 0.814255
vt 0.977573 0.815877
vt 0.012247 0.283965
vt 0.010024 0.284381
vt 0.006622 0.284690
vt 0.002953 0.284808
vt 0.000000 0.284704
vt 0.897906 0.908351
vt 0.888238 0.887593
vt 0.891832 0.887005
vt 0.901468 0.907695
vt 0.514399 0.066295
vt 0.517604 0.067422
vt 0.520474 0.069477
vt 0.047789 0.637845
vt 0.050664 0.639481
vt 0.053874 0.641055
vt 0.056561 0.642144
vt 0.993626 0.836092
vt 0.990071 0.836841
vt 0.987103 0.838674
vt 0.016049 0.316012
vt 0.013874 0.316834
vt 0.010520 0.317548
vt 0.006886 0.317963
vt 0.003946 0.317968
vt 0.879717 0.863518
vt 0.883339 0.863008
vt 0.534986 0.045386
vt 0.538008 0.046700
vt 0.540625 0.049011
vt 0.067854 0.610451
vt 0.070478 0.612430
vt 0.073505 0.614254
vt 0.076124 0.615435
vt 0.855529 0.500634
vt 0.846479 0.523257
vt 0.842880 0.522630
vt 0.851962 0.499929
vt 0.839799 0.521046
vt 0.848966 0.498133
vt 0.023587 0.347020
vt 0.021507 0.348235
vt 0.018249 0.349342
vt 0.014685 0.350044
vt 0.011770 0.350154
vt 0.872487 0.836537
vt 0.876133 0.836115
vt 0.879342 0.834873
vt 0.886484 0.861525
vt 0.561273 0.029444
vt 0.563604 0.031969
vt 0.090753 0.585508
vt 0.093091 0.587799
vt 0.095909 0.589851
vt 0.098451 0.591115
vt 0.838542 0.548681
vt 0.834916 0.548142
vt 0.831760 0.546797
vt 0.034732 0.376460
vt 0.032794 0.378047
vt 0.029677 0.379527
vt 0.026216 0.380502
vt 0.023339 0.380712
vt 0.866673 0.807112
vt 0.870338 0.806787
vt 0.873599 0.805807
vt 0.587003 0.015950
vt 0.589016 0.018641
vt 0.116096 0.563443
vt 0.118117 0.566010
vt 0.120702 0.568264
vt 0.123160 0.569602
vt 0.831854 0.576473
vt 0.828205 0.576029
vt 0.824987 0.574944
vt 0.049294 0.403827
vt 0.047540 0.405761
vt 0.044608 0.407587
vt 0.041282 0.408816
vt 0.869382 0.836025
vt 0.863587 0.806697
vt 0.862374 0.775747
vt 0.866053 0.775524
vt 0.869353 0.774825
vt 0.614757 0.006448
vt 0.616427 0.009256
vt 0.143447 0.544635
vt 0.145126 0.547436
vt 0.147462 0.549863
vt 0.834955 0.576158
vt 0.829613 0.605942
vt 0.826530 0.606155
vt 0.822863 0.605813
vt 0.819594 0.605007
vt 0.067024 0.428654
vt 0.065495 0.430901
vt 0.062786 0.433042
vt 0.059625 0.434501
vt 0.859302 0.775434
vn 0.9640 -0.2583 0.0632
vn 0.7063 -0.7064 0.0463
vn 0.2588 -0.9658 0.0170
vn -0.2588 -0.9658 -0.0170
vn -0.7063 -0.7064 -0.0463
vn -0.9640 -0.2583 -0.0632
vn -0.9640 0.2583 -0.0632
vn -0.7063 0.7064 -0.0463
vn -0.2588 0.9658 -0.0170
vn 0.2588 0.9658 0.0170
vn 0.7063 0.7064 0.0463
vn 0.9640 0.2583 0.0632
vn 0.9475 -0.2583 0.1885
vn 0.6943 -0.7064 0.1381
vn 0.2544 -0.9658 0.0506
vn -0.2544 -0.9658 -0.0506
vn -0.6943 -0.7063 -0.1381
vn -0.9475 -0.2583 -0.1885
vn -0.9475 0.2583 -0.1885
vn -0.6943 0.7063 -0.1381
vn -0.2544 0.9658 -0.0506
vn 0.2544 0.9658 0.0506
vn 0.6943 0.7064 0.1381
vn 0.9475 0.2583 0.1885
vn 0.9148 -0.2583 0.3105
vn 0.6703 -0.7063 0.2275
vn 0.2456 -0.9658 0.0834
vn -0.2456 -0.9658 -0.0834
vn -0.6703 -0.7063 -0.2275
vn -0.9148 -0.2583 -0.3105
vn -0.9148 0.2583 -0.3105
vn -0.6703 0.7063 -0.2275
vn -0.2456 0.9658 -0.0834
vn 0.2456 0.9658 0.0834
vn 0.6703 0.7063 0.2275
vn 0.9148 0.2583 0.3105
vn 0.8664 -0.2583 0.4273
vn 0.6349 -0.7063 0.3131
vn 0.2326 -0.9658 0.1147
vn -0.2326 -0.9658 -0.1147
vn -0.6349 -0.7063 -0.3131
vn -0.8664 -0.2583 -0.4273
vn -0.8664 0.2583 -0.4273
vn -0.6349 0.7063 -0.3131
vn -0.2326 0.9658 -0.1147
vn 0.2326 0.9658 0.1147
vn 0.6349 0.7063 0.3131
vn 0.8664 0.2583 0.4273
vn 0.8033 -0.2583 0.5367
vn 0.5886 -0.7064 0.3933
vn 0.2156 -0.9658 0.1441
vn -0.2156 -0.9658 -0.1441
vn -0.5886 -0.7064 -0.3933
vn -0.8033 -0.2583 -0.5367
vn -0.8033 0.2583 -0.5367
vn -0.5886 0.7064 -0.3933
vn -0.2156 0.9658 -0.1441
vn 0.2156 0.9658 0.1441
vn 0.5886 0.7063 0.3933
vn 0.8033 0.2583 0.5367
vn 0.7263 -0.2583 0.6370
vn 0.5322 -0.7064 0.4667
vn 0.1950 -0.9658 0.1710
vn -0.1950 -0.9658 -0.1710
vn -0.5322 -0.7063 -0.4667
vn -0.7263 -0.2583 -0.6370
vn -0.7263 0.2583 -0.6370
vn -0.5322 0.7063 -0.4667
vn -0.1950 0.9658 -0.1710
vn 0.1950 0.9658 0.1710
vn 0.5322 0.7063 0.4667
vn 0.7263 0.2583 0.6370
vn 0.6370 -0.2583 0.7263
vn 0.4667 -0.7063 0.5322
vn 0.1710 -0.9658 0.1950
vn -0.1710 -0.9658 -0.1950
vn -0.4667 -0.7063 -0.5322
vn -0.6370 -0.2583 -0.7263
vn -0.6370 0.2583 -0.7263
vn -0.4667 0.7063 -0.5322
vn -0.1710 0.9658 -0.1950
vn 0.1710 0.9658 0.1950
vn 0.4667 0.7063 0.5322
vn 0.6370 0.2583 0.7263
vn 0.5367 -0.2583 0.8033
vn 0.3933 -0.7063 0.5886
vn 0.1441 -0.9658 0.2156
vn -0.1441 -0.9658 -0.2156
vn -0.3933 -0.7064 -0.5886
vn -0.5367 -0.2583 -0.8033
vn -0.5367 0.2583 -0.8033
vn -0.3933 0.7063 -0.5886
vn -0.1441 0.9658 -0.2156
vn 0.1441 0.9658 0.2156
vn 0.3933 0.7063 0.5886
vn 0.5367 0.2583 0.8033
vn 0.4273 -0.2583 0.8664
vn 0.3131 -0.7064 0.6349
vn 0.1147 -0.9658 0.2326
vn -0.1147 -0.9658 -0.2326
vn -0.3131 -0.7064 -0.6349
vn -0.4273 -0.2583 -0.8664
vn -0.4273 0.2583 -0.8664
vn -0.3131 0.7063 -0.6349
vn -0.1147 0.9658 -0.2326
vn 0.1147 0.9658 0.2326
vn 0.3131 0.7063 0.6349
vn 0.4273 0.2583 0.8664
vn 0.3105 -0.2583 0.9148
vn 0.2275 -0.7064 0.6703
vn 0.0834 -0.9658 0.2456
vn -0.0834 -0.9658 -0.2456
vn -0.2275 -0.7064 -0.6703
vn -0.3105 -0.2583 -0.9148
vn -0.3105 0.2583 -0.9148
vn -0.2275 0.7063 -0.6703
vn -0.0834 0.9658 -0.2456
vn 0.0834 0.9658 0.2456
vn 0.2275 0.7063 0.6703
vn 0.3105 0.2583 0.9148
vn 0.1885 -0.2583 0.9475
vn 0.1381 -0.7064 0.6943
vn 0.0506 -0.9658 0.2544
vn -0.0506 -0.9658 -0.2544
vn -0.1381 -0.7064 -0.6943
vn -0.1885 -0.2583 -0.9475
vn -0.1885 0.2583 -0.9475
vn -0.1381 0.7063 -0.6943
vn -0.0506 0.9658 -0.2544
vn 0.0506 0.9658 0.2544
vn 0.1381 0.7063 0.6943
vn 0.1885 0.2583 0.9475
vn 0.0632 -0.2583 0.9640
vn 0.0463 -0.7064 0.7063
vn 0.0170 -0.9658 0.2588
vn -0.0170 -0.9658 -0.2588
vn -0.0463 -0.7064 -0.7063
vn -0.0632 -0.2583 -0.9640
vn -0.0632 0.2583 -0.9640
vn -0.0463 0.7064 -0.7063
vn -0.0170 0.9658 -0.2588
vn 0.0170 0.9658 0.2588
vn 0.0463 0.7064 0.7063
vn 0.0632 0.2583 0.9640
s 1
f 1/1/1 2/2/1 3/3/1 4/4/1
f 4/4/2 3/3/2 5/5/2 6/6/2
f 6/6/3 5/5/3 7/7/3 8/8/3
f 8/9/4 7/10/4 9/11/4 10/12/4
f 10/12/5 9/11/5 11/13/5 12/14/5
f 12/15/6 11/16/6 13/17/6 14/18/6
f 14/18/7 13/17/7 15/19/7 16/20/7
f 16/20/8 15/19/8 17/21/8 18/22/8
f 18/23/9 17/24/9 19/25/9 20/26/9
f 20/26/10 19/25/10 21/27/10 22/28/10
f 22/28/11 21/27/11 23/29/11 24/30/11
f 24/30/12 23/29/12 2/31/12 1/32/12
f 2/2/13 25/33/13 26/34/13 3/3/13
f 3/3/14 26/34/14 27/35/14 5/5/14
f 5/5/15 27/35/15 28/36/15 7/7/15
f 7/10/16 28/37/16 29/38/16 9/11/16
f 9/11/17 29/38/17 30/39/17 11/13/17
f 11/16/18 30/40/18 31/41/18 13/17/18
f 13/17/19 31/41/19 32/42/19 15/19/19
f 15/19/20 32/42/20 33/43/20 17/21/20
f 17/24/21 33/44/21 34/45/21 19/25/21
f 19/25/22 34/45/22 35/46/22 21/27/22
f 21/27/23 35/46/23 36/47/23 23/29/23
f 23/29/24 36/47/24 25/48/24 2/31/24
f 25/33/25 37/49/25 38/50/25 26/34/25
f 26/34/26 38/50/26 39/51/26 27/35/26
f 27/35/27 39/51/27 40/52/27 28/36/27
f 28/37/28 40/53/28 41/54/28 29/38/28
f 29/38/29 41/54/29 42/55/29 30/39/29
f 30/40/30 42/56/30 43/57/30 31/41/30
f 31/41/31 43/57/31 44/58/31 32/42/31
f 32/42/32 44/58/32 45/59/32 33/43/32
f 33/44/33 45/60/33 46/61/33 34/45/33
f 34/45/34 46/61/34 47/62/34 35/46/34
f 35/46/35 47/62/35 48/63/35 36/47/35
f 36/47/36 48/63/36 37/64/36 25/48/36
f 37/49/37 49/65/37 50/66/37 38/50/37
f 38/50/38 50/66/38 51/67/38 39/51/38
f 39/51/39 51/67/39 52/68/39 40/52/39
f 40/53/40 52/69/40 53/70/40 41/54/40
f 41/54/41 53/70/41 54/71/41 42/55/41
f 42/56/42 54/72/42 55/73/42 43/57/42
f 43/57/43 55/73/43 56/74/43 44/58/43
f 44/58/44 56/74/44 57/75/44 45/59/44
f 45/60/45 57/76/45 58/77/45 46/61/45
f 46/61/46 58/77/46 59/78/46 47/62/46
f 47/62/47 59/78/47 60/79/47 48/63/47
f 48/63/48 60/79/48 49/80/48 37/64/48
f 49/65/49 61/81/49 62/82/49 50/66/49
f 50/66/50 62/82/50 63/83/50 51/67/50
f 51/67/51 63/83/51 64/84/51 52/68/51
f 52/69/52 64/85/52 65/86/52 53/70/52
f 53/70/53 65/86/53 66/87/53 54/71/53
f 54/71/54 66/87/54 67/88/54 55/89/54
f 55/73/55 67/90/55 68/91/55 56/74/55
f 56/74/56 68/91/56 69/92/56 57/75/56
f 57/76/57 69/93/57 70/94/57 58/77/57
f 58/77/58 70/94/58 71/95/58 59/78/58
f 59/78/59 71/95/59 72/96/59 60/79/59
f 60/79/60 72/96/60 61/97/60 49/80/60
f 61/81/61 73/98/61 74/99/61 62/82/61
f 62/82/62 74/99/62 75/100/62 63/83/62
f 63/83/63 75/100/63 76/101/63 64/84/63
f 64/85/64 76/102/64 77/103/64 65/86/64
f 65/86/65 77/103/65 78/104/65 66/87/65
f 66/87/66 78/104/66 79/105/66 67/88/66
f 67/90/67 79/106/67 80/107/67 68/91/67
f 68/91/68 80/107/68 81/108/68 69/92/68
f 69/93/69 81/109/69 82/110/69 70/94/69
f 70/94/70 82/110/70 83/111/70 71/95/70
f 71/95/71 83/111/71 84/112/71 72/96/71
f 72/96/72 84/112/72 73/113/72 61/97/72
f 73/98/73 85/114/73 86/115/73 74/99/73
f 74/99/74 86/115/74 87/116/74 75/100/74
f 75/100/75 87/116/75 88/117/75 76/101/75
f 76/102/76 88/118/76 89/119/76 77/103/76
f 77/103/77 89/119/77 90/120/77 78/104/77
f 78/104/78 90/120/78 91/121/78 79/105/78
f 79/106/79 91/122/79 92/123/79 80/107/79
f 80/107/80 92/123/80 93/124/80 81/108/80
f 81/109/81 93/125/81 94/126/81 82/110/81
f 82/110/82 94/126/82 95/127/82 83/111/82
f 83/111/83 95/127/83 96/128/83 84/112/83
f 84/112/84 96/128/84 85/129/84 73/113/84
f 85/130/85 97/131/85 98/132/85 86/133/85
f 86/115/86 98/134/86 99/135/86 87/116/86
f 87/116/87 99/135/87 100/136/87 88/117/87
f 88/118/88 100/137/88 101/138/88 89/119/88
f 89/119/89 101/138/89 102/139/89 90/120/89
f 90/120/90 102/139/90 103/140/90 91/121/90
f 91/122/91 103/141/91 104/142/91 92/123/91
f 92/123/92 104/142/92 105/143/92 93/124/92
f 93/125/93 105/144/93 106/145/93 94/126/93
f 94/126/94 106/145/94 107/146/94 95/127/94
f 95/127/95 107/146/95 108/147/95 96/128/95
f 96/128/96 108/147/96 97/148/96 85/129/96
f 97/131/97 109/149/97 110/150/97 98/132/97
f 98/134/98 110/151/98 111/152/98 99/135/98
f 99/135/99 111/152/99 112/153/99 100/136/99
f 100/137/100 112/154/100 113/155/100 101/138/100
f 101/138/101 113/155/101 114/156/101 102/139/101
f 102/139/102 114/156/102 115/157/102 103/140/102
f 103/158/103 115/159/103 116/160/103 104/161/103
f 104/161/104 116/160/104 117/162/104 105/163/104
f 105/144/105 117/164/105 118/165/105 106/145/105
f 106/145/106 118/165/106 119/166/106 107/146/106
f 107/146/107 119/166/107 120/167/107 108/147/107
f 108/147/108 120/167/108 109/168/108 97/148/108
f 109/149/109 121/169/109 122/170/109 110/150/109
f 110/150/110 122/170/110 123/171/110 111/172/110
f 111/152/111 123/173/111 124/174/111 112/153/111
f 112/154/112 124/175/112 125/176/112 113/155/112
f 113/155/113 125/176/113 126/177/113 114/156/113
f 114/156/114 126/177/114 127/178/114 115/157/114
f 115/159/115 127/179/115 128/180/115 116/160/115
f 116/160/116 128/180/116 129/181/116 117/162/116
f 117/164/117 129/182/117 130/183/117 118/165/117
f 118/165/118 130/183/118 131/184/118 119/166/118
f 119/166/119 131/184/119 132/185/119 120/167/119
f 120/167/120 132/185/120 121/186/120 109/168/120
f 121/169/121 133/187/121 134/188/121 122/170/121
f 122/170/122 134/188/122 135/189/122 123/171/122
f 123/173/123 135/190/123 136/191/123 124/174/123
f 124/175/124 136/192/124 137/193/124 125/176/124
f 125/176/125 137/193/125 138/194/125 126/177/125
f 126/177/126 138/194/126 139/195/126 127/178/126
f 127/179/127 139/196/127 140/197/127 128/180/127
f 128/180/128 140/197/128 141/198/128 129/181/128
f 129/182/129 141/199/129 142/200/129 130/183/129
f 130/183/130 142/200/130 143/201/130 131/184/130
f 131/184/131 143/201/131 144/202/131 132/185/131
f 132/203/132 144/204/132 133/187/132 121/169/132
f 133/187/133 145/205/133 146/206/133 134/188/133
f 134/188/134 146/206/134 147/207/134 135/189/134
f 135/190/135 147/208/135 148/209/135 136/191/135
f 136/192/136 148/210/136 149/211/136 137/193/136
f 137/193/137 149/211/137 150/212/137 138/194/137
f 138/213/138 150/214/138 151/215/138 139/196/138
f 139/196/139 151/215/139 152/216/139 140/197/139
f 140/197/140 152/216/140 153/217/140 141/198/140
f 141/199/141 153/218/141 154/219/141 142/200/141
f 142/200/142 154/219/142 155/220/142 143/201/142
f 143/201/143 155/220/143 156/221/143 144/202/143
f 144/204/144 156/222/144 145/205/144 133/187/144
