# Blender v2.80 (sub 75) OBJ File: ''
# www.blender.org
o Plane.001
v 10.000000 0.000000 0.000000
v 0.000000 0.000000 0.000000
v 0.000000 10.000000 0.000002
v 10.000000 10.000000 0.000002
v 0.000000 0.000000 0.000000
v 10.000000 0.000000 0.000000
v 10.000000 10.000000 0.000002
v 0.000000 10.000000 0.000002
vt 1.000000 0.000000
vt 0.000000 0.000000
vt 0.000000 1.000000
vt 1.000000 1.000000
vt 0.000000 0.000000
vt 1.000000 0.000000
vt 1.000000 1.000000
vt 0.000000 1.000000
vn 0.0000 0.0000 -1.0000
vn 0.0000 -0.0000 1.0000
s 1
f 1/1/1 2/2/1 3/3/1 4/4/1
f 5/5/2 6/6/2 7/7/2 8/8/2
