# Blender v2.80 (sub 75) OBJ File: ''
# www.blender.org
o Cube.001_Cube.000
v -0.755554 -0.755556 8.849877
v -0.755554 0.755552 8.849877
v -0.755554 0.755552 7.338768
v -0.755554 -0.755556 7.338768
v 0.755554 0.755552 7.338768
v 0.755554 -0.755556 7.338768
v 0.755554 0.755552 8.849877
v 0.755554 -0.755556 8.849877
v 0.299999 -0.000000 0.000004
v 0.299999 -0.000002 8.000000
v 0.297434 -0.039167 8.000000
v 0.297434 -0.039150 0.000004
v 0.289784 -0.077642 8.000000
v 0.289784 -0.077640 0.000004
v 0.277169 -0.114812 8.000000
v 0.277169 -0.114810 0.000004
v 0.259814 -0.150002 8.000000
v 0.259814 -0.150000 0.000004
v 0.238004 -0.182627 8.000000
v 0.238004 -0.182625 0.000004
v 0.212129 -0.212132 8.000000
v 0.212129 -0.212130 0.000004
v 0.182624 -0.238007 8.000000
v 0.182624 -0.238005 0.000004
v 0.149999 -0.259817 8.000000
v 0.149999 -0.259800 0.000004
v 0.114809 -0.277172 8.000000
v 0.114809 -0.277170 0.000004
v 0.077654 -0.289787 8.000000
v 0.077654 -0.289770 0.000004
v 0.039164 -0.297437 8.000000
v 0.039164 -0.297435 0.000004
v -0.000001 -0.300002 8.000000
v -0.000001 -0.300000 0.000004
v -0.039151 -0.297437 8.000000
v -0.039151 -0.297435 0.000004
v -0.077641 -0.289787 8.000000
v -0.077641 -0.289770 0.000004
v -0.114796 -0.277172 8.000000
v -0.114796 -0.277170 0.000004
v -0.150001 -0.259817 8.000000
v -0.150001 -0.259800 0.000004
v -0.182626 -0.238007 8.000000
v -0.182626 -0.238005 0.000004
v -0.212131 -0.212132 8.000000
v -0.212131 -0.212130 0.000004
v -0.238006 -0.182627 8.000000
v -0.238006 -0.182625 0.000004
v -0.259801 -0.150002 8.000000
v -0.259801 -0.150000 0.000004
v -0.277156 -0.114812 8.000000
v -0.277156 -0.114810 0.000004
v -0.289771 -0.077642 8.000000
v -0.289771 -0.077640 0.000004
v -0.297436 -0.039167 8.000000
v -0.297436 -0.039150 0.000004
v -0.300001 -0.000002 8.000000
v -0.300001 -0.000000 0.000004
v -0.297436 0.039163 8.000000
v -0.297436 0.039165 0.000004
v -0.289771 0.077638 8.000000
v -0.289771 0.077640 0.000004
v -0.277156 0.114808 8.000000
v -0.277156 0.114810 0.000004
v -0.259801 0.149998 8.000000
v -0.259801 0.150000 0.000004
v -0.238006 0.182623 8.000000
v -0.238006 0.182625 0.000004
v -0.212131 0.212128 8.000000
v -0.212131 0.212130 0.000004
v -0.182626 0.238003 8.000000
v -0.182626 0.238005 0.000004
v -0.150001 0.259798 8.000000
v -0.150001 0.259815 0.000004
v -0.114796 0.277168 8.000000
v -0.114796 0.277170 0.000004
v -0.077641 0.289783 8.000000
v -0.077641 0.289785 0.000004
v -0.039151 0.297433 8.000000
v -0.039151 0.297435 0.000004
v -0.000001 0.299998 8.000000
v -0.000001 0.300000 0.000004
v 0.039164 0.297433 8.000000
v 0.039164 0.297435 0.000004
v 0.077654 0.289768 8.000000
v 0.077654 0.289785 0.000004
v 0.114809 0.277168 8.000000
v 0.114809 0.277170 0.000004
v 0.149999 0.259798 8.000000
v 0.149999 0.259815 0.000004
v 0.182624 0.238003 8.000000
v 0.182624 0.238005 0.000004
v 0.212129 0.212128 8.000000
v 0.212129 0.212130 0.000004
v 0.238004 0.182623 8.000000
v 0.238004 0.182625 0.000004
v 0.259814 0.149998 8.000000
v 0.259814 0.150000 0.000004
v 0.277169 0.114808 8.000000
v 0.277169 0.114810 0.000004
v 0.289784 0.077638 8.000000
v 0.289784 0.077640 0.000004
v 0.297434 0.039148 8.000000
v 0.297434 0.039165 0.000004
vt 0.375000 0.000000
vt 0.625000 0.000000
vt 0.625000 0.250000
vt 0.375000 0.250000
vt 0.625000 0.500000
vt 0.375000 0.500000
vt 0.625000 0.750000
vt 0.375000 0.750000
vt 0.625000 1.000000
vt 0.375000 1.000000
vt 0.125000 0.500000
vt 0.125000 0.750000
vt 0.875000 0.500000
vt 0.875000 0.750000
vt 0.260969 0.000175
vt 0.260969 0.999819
vt 0.253647 0.999750
vt 0.253647 0.000106
vt 0.245835 0.999698
vt 0.245835 0.000054
vt 0.237668 0.999662
vt 0.237668 0.000018
vt 0.229285 0.999644
vt 0.229285 0.000000
vt 0.220829 0.999644
vt 0.220830 0.000000
vt 0.212447 0.999662
vt 0.212447 0.000018
vt 0.204280 0.999698
vt 0.204279 0.000054
vt 0.196468 0.999750
vt 0.196468 0.000106
vt 0.189145 0.999819
vt 0.189145 0.000175
vt 0.182437 0.999903
vt 0.182437 0.000259
vt 0.364874 0.000356
vt 0.364874 1.000000
vt 0.358896 0.999902
vt 0.358896 0.000259
vt 0.352188 0.999819
vt 0.352188 0.000175
vt 0.344865 0.999750
vt 0.344865 0.000106
vt 0.337053 0.999697
vt 0.337054 0.000054
vt 0.328886 0.999662
vt 0.328886 0.000018
vt 0.320503 0.999644
vt 0.320504 0.000000
vt 0.312048 0.999644
vt 0.312048 0.000000
vt 0.303665 0.999662
vt 0.303665 0.000018
vt 0.295498 0.999697
vt 0.295498 0.000054
vt 0.287686 0.999750
vt 0.287687 0.000106
vt 0.280364 0.999819
vt 0.280364 0.000175
vt 0.273656 0.999902
vt 0.273656 0.000259
vt 0.091219 0.999644
vt 0.091219 0.000000
vt 0.097198 0.000097
vt 0.097198 0.999741
vt 0.103906 0.000181
vt 0.103906 0.999825
vt 0.111228 0.000250
vt 0.111228 0.999893
vt 0.119040 0.000302
vt 0.119040 0.999946
vt 0.127207 0.000338
vt 0.127207 0.999982
vt 0.135590 0.000356
vt 0.135590 0.999999
vt 0.144045 0.000356
vt 0.144045 0.999999
vt 0.152428 0.000338
vt 0.152428 0.999982
vt 0.160595 0.000302
vt 0.160595 0.999946
vt 0.168407 0.000250
vt 0.168407 0.999893
vt 0.175729 0.000181
vt 0.175729 0.999825
vt 0.182437 0.000097
vt 0.182437 0.999741
vt 0.000000 0.999644
vt 0.000000 0.000000
vt 0.005979 0.000097
vt 0.005979 0.999741
vt 0.012687 0.000181
vt 0.012687 0.999825
vt 0.020009 0.000250
vt 0.020010 0.999894
vt 0.027821 0.000302
vt 0.027821 0.999946
vt 0.035988 0.000338
vt 0.035988 0.999982
vt 0.044371 0.000356
vt 0.044371 1.000000
vt 0.052826 0.000356
vt 0.052827 1.000000
vt 0.061209 0.000338
vt 0.061210 0.999982
vt 0.069376 0.000302
vt 0.069377 0.999946
vt 0.077188 0.000250
vt 0.077188 0.999894
vt 0.084510 0.000181
vt 0.084511 0.999825
vt 0.091218 0.000097
vt 0.091219 0.999741
vt 0.771732 0.102198
vt 0.780115 0.102026
vt 0.788570 0.102026
vt 0.796953 0.102198
vt 0.805120 0.102538
vt 0.812932 0.103041
vt 0.820255 0.103699
vt 0.826962 0.104499
vt 0.832941 0.105429
vt 0.838089 0.106472
vt 0.842316 0.107611
vt 0.845552 0.108825
vt 0.847740 0.110095
vt 0.848844 0.111399
vt 0.848844 0.112714
vt 0.847741 0.114017
vt 0.845552 0.115287
vt 0.842317 0.116502
vt 0.838089 0.117641
vt 0.832942 0.118684
vt 0.826963 0.119614
vt 0.820255 0.120414
vt 0.812932 0.121071
vt 0.805121 0.121575
vt 0.796955 0.121915
vt 0.788571 0.122086
vt 0.780116 0.122086
vt 0.771733 0.121915
vt 0.763566 0.121575
vt 0.755755 0.121071
vt 0.748432 0.120414
vt 0.741724 0.119614
vt 0.735745 0.118684
vt 0.730598 0.117641
vt 0.726370 0.116502
vt 0.723134 0.115287
vt 0.720946 0.114017
vt 0.719842 0.112714
vt 0.719842 0.111399
vt 0.720945 0.110096
vt 0.723134 0.108826
vt 0.726370 0.107611
vt 0.730597 0.106472
vt 0.735744 0.105429
vt 0.741723 0.104499
vt 0.748431 0.103699
vt 0.755753 0.103041
vt 0.763565 0.102538
vt 0.273656 0.000356
vt 0.273656 1.000000
vt 0.267677 0.999903
vt 0.267677 0.000259
vt 0.597368 0.107611
vt 0.601596 0.106472
vt 0.606743 0.105429
vt 0.612722 0.104499
vt 0.619430 0.103699
vt 0.626752 0.103041
vt 0.634564 0.102538
vt 0.642731 0.102198
vt 0.651114 0.102026
vt 0.659569 0.102026
vt 0.667952 0.102198
vt 0.676119 0.102538
vt 0.683931 0.103041
vt 0.691253 0.103699
vt 0.697961 0.104499
vt 0.703940 0.105429
vt 0.709087 0.106472
vt 0.713315 0.107611
vt 0.716550 0.108826
vt 0.718739 0.110096
vt 0.719842 0.111399
vt 0.719842 0.112714
vt 0.718739 0.114017
vt 0.716550 0.115287
vt 0.713314 0.116502
vt 0.709087 0.117641
vt 0.703940 0.118684
vt 0.697961 0.119614
vt 0.691253 0.120414
vt 0.683930 0.121071
vt 0.676118 0.121575
vt 0.667951 0.121915
vt 0.659568 0.122086
vt 0.651113 0.122086
vt 0.642730 0.121915
vt 0.634563 0.121575
vt 0.626751 0.121071
vt 0.619429 0.120414
vt 0.612721 0.119614
vt 0.606742 0.118684
vt 0.601595 0.117641
vt 0.597368 0.116502
vt 0.594132 0.115287
vt 0.591944 0.114017
vt 0.590840 0.112714
vt 0.590840 0.111399
vt 0.591944 0.110095
vt 0.594132 0.108825
vn -1.0000 0.0000 0.0000
vn 0.0000 0.0000 -1.0000
vn 1.0000 0.0000 0.0000
vn 0.0000 0.0000 1.0000
vn 0.0000 -1.0000 -0.0000
vn 0.0000 1.0000 0.0000
vn 0.9979 -0.0654 -0.0000
vn 0.9808 -0.1950 -0.0000
vn 0.9469 -0.3214 -0.0000
vn 0.8969 -0.4423 -0.0000
vn 0.8313 -0.5558 -0.0000
vn 0.7518 -0.6593 -0.0000
vn 0.6593 -0.7518 -0.0000
vn 0.5556 -0.8314 -0.0000
vn 0.4425 -0.8968 -0.0000
vn 0.3213 -0.9470 -0.0000
vn 0.1951 -0.9808 -0.0000
vn 0.0654 -0.9979 -0.0000
vn -0.0654 -0.9979 -0.0000
vn -0.1951 -0.9808 -0.0000
vn -0.3213 -0.9470 -0.0000
vn -0.4423 -0.8969 -0.0000
vn -0.5556 -0.8314 -0.0000
vn -0.6593 -0.7518 -0.0000
vn -0.7518 -0.6593 -0.0000
vn -0.8315 -0.5555 -0.0000
vn -0.8969 -0.4423 -0.0000
vn -0.9469 -0.3214 -0.0000
vn -0.9807 -0.1953 -0.0000
vn -0.9979 -0.0654 -0.0000
vn -0.9979 0.0654 0.0000
vn -0.9807 0.1954 0.0000
vn -0.9469 0.3214 0.0000
vn -0.8969 0.4423 0.0000
vn -0.8315 0.5555 0.0000
vn -0.7518 0.6593 0.0000
vn -0.6593 0.7518 0.0000
vn -0.5556 0.8314 0.0000
vn -0.4423 0.8969 0.0000
vn -0.3215 0.9469 0.0000
vn -0.1949 0.9808 0.0000
vn -0.0654 0.9979 0.0000
vn 0.0654 0.9979 0.0000
vn 0.1951 0.9808 0.0000
vn 0.3213 0.9470 0.0000
vn 0.4425 0.8968 0.0000
vn 0.5556 0.8314 0.0000
vn 0.6593 0.7518 0.0000
vn 0.7518 0.6593 0.0000
vn 0.8313 0.5558 0.0000
vn 0.8969 0.4423 0.0000
vn 0.9469 0.3214 0.0000
vn 0.9808 0.1950 0.0000
vn 0.9979 0.0654 0.0000
s 1
f 1/1/1 2/2/1 3/3/1 4/4/1
f 4/4/2 3/3/2 5/5/2 6/6/2
f 6/6/3 5/5/3 7/7/3 8/8/3
f 8/8/4 7/7/4 2/9/4 1/10/4
f 4/11/5 6/6/5 8/8/5 1/12/5
f 5/5/6 3/13/6 2/14/6 7/7/6
f 9/15/7 10/16/7 11/17/7 12/18/7
f 12/18/8 11/17/8 13/19/8 14/20/8
f 14/20/9 13/19/9 15/21/9 16/22/9
f 16/22/10 15/21/10 17/23/10 18/24/10
f 18/24/11 17/23/11 19/25/11 20/26/11
f 20/26/12 19/25/12 21/27/12 22/28/12
f 22/28/13 21/27/13 23/29/13 24/30/13
f 24/30/14 23/29/14 25/31/14 26/32/14
f 26/32/15 25/31/15 27/33/15 28/34/15
f 28/34/16 27/33/16 29/35/16 30/36/16
f 30/37/17 29/38/17 31/39/17 32/40/17
f 32/40/18 31/39/18 33/41/18 34/42/18
f 34/42/19 33/41/19 35/43/19 36/44/19
f 36/44/20 35/43/20 37/45/20 38/46/20
f 38/46/21 37/45/21 39/47/21 40/48/21
f 40/48/22 39/47/22 41/49/22 42/50/22
f 42/50/23 41/49/23 43/51/23 44/52/23
f 44/52/24 43/51/24 45/53/24 46/54/24
f 46/54/25 45/53/25 47/55/25 48/56/25
f 48/56/26 47/55/26 49/57/26 50/58/26
f 50/58/27 49/57/27 51/59/27 52/60/27
f 52/60/28 51/59/28 53/61/28 54/62/28
f 54/63/29 53/64/29 55/65/29 56/66/29
f 56/66/30 55/65/30 57/67/30 58/68/30
f 58/68/31 57/67/31 59/69/31 60/70/31
f 60/70/32 59/69/32 61/71/32 62/72/32
f 62/72/33 61/71/33 63/73/33 64/74/33
f 64/74/34 63/73/34 65/75/34 66/76/34
f 66/76/35 65/75/35 67/77/35 68/78/35
f 68/78/36 67/77/36 69/79/36 70/80/36
f 70/80/37 69/79/37 71/81/37 72/82/37
f 72/82/38 71/81/38 73/83/38 74/84/38
f 74/84/39 73/83/39 75/85/39 76/86/39
f 76/86/40 75/85/40 77/87/40 78/88/40
f 78/89/41 77/90/41 79/91/41 80/92/41
f 80/92/42 79/91/42 81/93/42 82/94/42
f 82/94/43 81/93/43 83/95/43 84/96/43
f 84/96/44 83/95/44 85/97/44 86/98/44
f 86/98/45 85/97/45 87/99/45 88/100/45
f 88/100/46 87/99/46 89/101/46 90/102/46
f 90/102/47 89/101/47 91/103/47 92/104/47
f 92/104/48 91/103/48 93/105/48 94/106/48
f 94/106/49 93/105/49 95/107/49 96/108/49
f 96/108/50 95/107/50 97/109/50 98/110/50
f 98/110/51 97/109/51 99/111/51 100/112/51
f 100/112/52 99/111/52 101/113/52 102/114/52
f 11/115/4 10/116/4 103/117/4 101/118/4 99/119/4 97/120/4 95/121/4 93/122/4 91/123/4 89/124/4 87/125/4 85/126/4 83/127/4 81/128/4 79/129/4 77/130/4 75/131/4 73/132/4 71/133/4 69/134/4 67/135/4 65/136/4 63/137/4 61/138/4 59/139/4 57/140/4 55/141/4 53/142/4 51/143/4 49/144/4 47/145/4 45/146/4 43/147/4 41/148/4 39/149/4 37/150/4 35/151/4 33/152/4 31/153/4 29/154/4 27/155/4 25/156/4 23/157/4 21/158/4 19/159/4 17/160/4 15/161/4 13/162/4
f 102/163/53 101/164/53 103/165/53 104/166/53
f 104/166/54 103/165/54 10/16/54 9/15/54
f 9/167/2 12/168/2 14/169/2 16/170/2 18/171/2 20/172/2 22/173/2 24/174/2 26/175/2 28/176/2 30/177/2 32/178/2 34/179/2 36/180/2 38/181/2 40/182/2 42/183/2 44/184/2 46/185/2 48/186/2 50/187/2 52/188/2 54/189/2 56/190/2 58/191/2 60/192/2 62/193/2 64/194/2 66/195/2 68/196/2 70/197/2 72/198/2 74/199/2 76/200/2 78/201/2 80/202/2 82/203/2 84/204/2 86/205/2 88/206/2 90/207/2 92/208/2 94/209/2 96/210/2 98/211/2 100/212/2 102/213/2 104/214/2
