# Blender v2.80 (sub 75) OBJ File: ''
# www.blender.org
o Arrow_Cylinder
v 0.000004 0.000000 -0.399998
v 8.000000 0.000000 -0.399998
v 8.000000 -0.052220 -0.396578
v 0.000004 -0.052200 -0.396578
v 8.000000 -0.103520 -0.386378
v 0.000004 -0.103520 -0.386378
v 8.000000 -0.153080 -0.369558
v 0.000004 -0.153080 -0.369558
v 8.000000 -0.200000 -0.346418
v 0.000004 -0.200000 -0.346418
v 8.000000 -0.243500 -0.317338
v 0.000004 -0.243500 -0.317338
v 8.000000 -0.282840 -0.282838
v 0.000004 -0.282840 -0.282838
v 8.000000 -0.317340 -0.243498
v 0.000004 -0.317340 -0.243498
v 8.000000 -0.346420 -0.199998
v 0.000004 -0.346400 -0.199998
v 8.000000 -0.369560 -0.153078
v 0.000004 -0.369560 -0.153078
v 8.000000 -0.386380 -0.103538
v 0.000004 -0.386360 -0.103538
v 8.000000 -0.396580 -0.052218
v 0.000004 -0.396580 -0.052218
v 8.000000 -0.400000 0.000002
v 0.000004 -0.400000 0.000002
v 8.000000 -0.396580 0.052202
v 0.000004 -0.396580 0.052202
v 8.000000 -0.386380 0.103522
v 0.000004 -0.386360 0.103522
v 8.000000 -0.369560 0.153062
v 0.000004 -0.369560 0.153062
v 8.000000 -0.346420 0.200002
v 0.000004 -0.346400 0.200002
v 8.000000 -0.317340 0.243502
v 0.000004 -0.317340 0.243502
v 8.000000 -0.282840 0.282842
v 0.000004 -0.282840 0.282842
v 8.000000 -0.243500 0.317342
v 0.000004 -0.243500 0.317342
v 8.000000 -0.200000 0.346402
v 0.000004 -0.200000 0.346402
v 8.000000 -0.153080 0.369542
v 0.000004 -0.153080 0.369542
v 8.000000 -0.103520 0.386362
v 0.000004 -0.103520 0.386362
v 8.000000 -0.052220 0.396582
v 0.000004 -0.052200 0.396582
v 8.000000 -0.000000 0.400002
v 0.000004 -0.000000 0.400002
v 8.000000 0.052220 0.396582
v 0.000004 0.052220 0.396582
v 8.000000 0.103520 0.386362
v 0.000004 0.103520 0.386362
v 8.000000 0.153080 0.369542
v 0.000004 0.153080 0.369542
v 8.000000 0.200000 0.346402
v 0.000004 0.200000 0.346402
v 8.000000 0.243500 0.317342
v 0.000004 0.243500 0.317342
v 8.000000 0.282840 0.282842
v 0.000004 0.282840 0.282842
v 8.000000 0.317340 0.243502
v 0.000004 0.317340 0.243502
v 8.000000 0.346400 0.200002
v 0.000004 0.346420 0.200002
v 8.000000 0.369560 0.153062
v 0.000004 0.369560 0.153062
v 8.000000 0.386380 0.103522
v 0.000004 0.386380 0.103522
v 8.000000 0.396580 0.052202
v 0.000004 0.396580 0.052202
v 8.000000 0.400000 0.000002
v 0.000004 0.400000 0.000002
v 8.000000 0.396580 -0.052218
v 0.000004 0.396580 -0.052218
v 8.000000 0.386360 -0.103538
v 0.000004 0.386380 -0.103538
v 8.000000 0.369560 -0.153078
v 0.000004 0.369560 -0.153078
v 8.000000 0.346400 -0.199998
v 0.000004 0.346420 -0.199998
v 8.000000 0.317340 -0.243498
v 0.000004 0.317340 -0.243498
v 8.000000 0.282840 -0.282838
v 0.000004 0.282840 -0.282838
v 8.000000 0.243500 -0.317338
v 0.000004 0.243500 -0.317338
v 8.000000 0.200000 -0.346418
v 0.000004 0.200000 -0.346418
v 8.000000 0.153080 -0.369558
v 0.000004 0.153080 -0.369558
v 8.000000 0.103520 -0.386378
v 0.000004 0.103520 -0.386378
v 8.000000 0.052200 -0.396578
v 0.000004 0.052220 -0.396578
v 7.350000 -0.650000 0.650000
v 7.350000 0.650000 0.650000
v 7.350000 -0.650000 -0.650000
v 7.350000 0.650000 -0.650000
v 8.650000 -0.650000 0.650000
v 8.650000 0.650000 0.650000
v 8.650000 -0.650000 -0.650000
v 8.650000 0.650000 -0.650000
vt 0.466388 0.325000
vt 0.466388 0.162500
vt 0.735266 0.162500
vt 0.735266 0.325000
vt 0.735266 0.487500
vt 0.466388 0.487500
vt 0.466388 0.325000
vt 0.735266 0.325000
vt 0.735266 0.162500
vt 0.466388 0.162500
vt 0.466388 0.000000
vt 0.735266 0.000000
vt 0.992668 0.325000
vt 0.735266 0.325000
vt 0.735266 0.162500
vt 0.992668 0.162500
vt 0.999999 0.325000
vt 1.000000 0.487500
vt 0.735266 0.487500
vt 0.735266 0.325000
vt 1.000000 0.000000
vt 1.000000 0.162500
vt 0.735266 0.000000
vt 0.306951 1.000000
vt 0.306951 0.000000
vt 0.317752 0.000000
vt 0.317748 1.000000
vt 0.328362 0.000000
vt 0.328362 1.000000
vt 0.338612 0.000000
vt 0.338613 1.000000
vt 0.348317 0.000000
vt 0.348317 1.000000
vt 0.357314 0.000000
vt 0.357314 1.000000
vt 0.466388 0.000000
vt 0.466388 1.000000
vt 0.457940 1.000000
vt 0.457940 0.000000
vt 0.448681 1.000000
vt 0.448680 0.000000
vt 0.438771 1.000000
vt 0.438771 0.000000
vt 0.428379 1.000000
vt 0.428378 0.000000
vt 0.417682 1.000000
vt 0.417682 0.000000
vt 0.406862 1.000000
vt 0.406862 0.000000
vt 0.396104 1.000000
vt 0.396104 0.000000
vt 0.385598 1.000000
vt 0.385597 0.000000
vt 0.375516 1.000000
vt 0.375516 0.000000
vt 0.366036 1.000000
vt 0.366036 0.000000
vt 0.357314 1.000000
vt 0.357314 0.000000
vt 0.241312 0.000000
vt 0.241316 1.000000
vt 0.232958 1.000000
vt 0.232958 0.000000
vt 0.223775 1.000000
vt 0.223775 0.000000
vt 0.213923 1.000000
vt 0.213923 0.000000
vt 0.203573 1.000000
vt 0.203573 0.000000
vt 0.192900 1.000000
vt 0.192900 0.000000
vt 0.182081 1.000000
vt 0.182081 0.000000
vt 0.171313 1.000000
vt 0.171309 0.000000
vt 0.160769 1.000000
vt 0.160769 0.000000
vt 0.150633 1.000000
vt 0.150633 0.000000
vt 0.141087 1.000000
vt 0.141087 0.000000
vt 0.132279 1.000000
vt 0.132279 0.000000
vt 0.124372 1.000000
vt 0.124372 0.000000
vt 0.000000 1.000000
vt 0.000000 0.000000
vt 0.007491 0.000000
vt 0.007491 1.000000
vt 0.015940 0.000000
vt 0.015940 1.000000
vt 0.025199 0.000000
vt 0.025199 1.000000
vt 0.035108 0.000000
vt 0.035109 1.000000
vt 0.045505 0.000000
vt 0.045505 1.000000
vt 0.056201 0.000000
vt 0.056202 1.000000
vt 0.067021 0.000000
vt 0.067021 1.000000
vt 0.077775 0.000000
vt 0.077775 1.000000
vt 0.088286 0.000000
vt 0.088286 1.000000
vt 0.098367 0.000000
vt 0.098368 1.000000
vt 0.107848 0.000000
vt 0.107848 1.000000
vt 0.116565 0.000000
vt 0.116566 1.000000
vt 0.124372 0.000000
vt 0.124372 1.000000
vt 0.241316 1.000000
vt 0.241316 0.000000
vt 0.248452 0.000000
vt 0.248452 1.000000
vt 0.256588 0.000000
vt 0.256588 1.000000
vt 0.265585 0.000000
vt 0.265585 1.000000
vt 0.275290 0.000000
vt 0.275290 1.000000
vt 0.285540 0.000000
vt 0.285540 1.000000
vt 0.771857 0.578967
vt 0.763270 0.574985
vt 0.755619 0.570361
vt 0.749030 0.565173
vt 0.743617 0.559507
vt 0.739477 0.553466
vt 0.736678 0.547147
vt 0.735266 0.540663
vt 0.735266 0.534122
vt 0.736679 0.527639
vt 0.739476 0.521321
vt 0.743620 0.515280
vt 0.749029 0.509615
vt 0.755619 0.504425
vt 0.763269 0.499802
vt 0.771854 0.495819
vt 0.781225 0.492550
vt 0.791228 0.490047
vt 0.801679 0.488354
vt 0.812409 0.487500
vt 0.823231 0.487500
vt 0.833958 0.488355
vt 0.844410 0.490047
vt 0.854411 0.492551
vt 0.863782 0.495819
vt 0.872368 0.499801
vt 0.880022 0.504426
vt 0.886606 0.509615
vt 0.892018 0.515280
vt 0.896159 0.521322
vt 0.898960 0.527638
vt 0.900373 0.534123
vt 0.900373 0.540664
vt 0.898962 0.547148
vt 0.896159 0.553467
vt 0.892019 0.559509
vt 0.886607 0.565173
vt 0.880020 0.570360
vt 0.872367 0.574986
vt 0.863782 0.578969
vt 0.854410 0.582238
vt 0.844414 0.584740
vt 0.833959 0.586432
vt 0.823230 0.587285
vt 0.812407 0.587285
vt 0.801677 0.586433
vt 0.791226 0.584741
vt 0.781225 0.582237
vt 0.296154 0.000000
vt 0.296151 1.000000
vt 0.494394 0.499801
vt 0.502977 0.495820
vt 0.512349 0.492549
vt 0.522349 0.490045
vt 0.532801 0.488353
vt 0.543531 0.487500
vt 0.554353 0.487500
vt 0.565083 0.488354
vt 0.575534 0.490047
vt 0.585534 0.492548
vt 0.594902 0.495819
vt 0.603490 0.499800
vt 0.611143 0.504426
vt 0.617730 0.509613
vt 0.623139 0.515279
vt 0.627282 0.521319
vt 0.630082 0.527639
vt 0.631495 0.534123
vt 0.631495 0.540663
vt 0.630083 0.547148
vt 0.627281 0.553464
vt 0.623141 0.559506
vt 0.617728 0.565171
vt 0.611141 0.570361
vt 0.603490 0.574985
vt 0.594904 0.578967
vt 0.585533 0.582235
vt 0.575532 0.584739
vt 0.565080 0.586431
vt 0.554353 0.587285
vt 0.543531 0.587285
vt 0.532801 0.586432
vt 0.522347 0.584740
vt 0.512347 0.582236
vt 0.502976 0.578966
vt 0.494391 0.574984
vt 0.486741 0.570360
vt 0.480151 0.565170
vt 0.474739 0.559507
vt 0.470599 0.553465
vt 0.467799 0.547148
vt 0.466388 0.540663
vt 0.466388 0.534123
vt 0.467801 0.527638
vt 0.470600 0.521320
vt 0.474740 0.515278
vt 0.480153 0.509613
vt 0.486740 0.504426
vn -1.0000 0.0000 0.0000
vn 0.0000 0.0000 -1.0000
vn 1.0000 0.0000 0.0000
vn 0.0000 0.0000 1.0000
vn 0.0000 -1.0000 0.0000
vn 0.0000 1.0000 0.0000
vn -0.0000 -0.0654 -0.9979
vn -0.0000 -0.1950 -0.9808
vn 0.0000 -0.3214 -0.9469
vn 0.0000 -0.4423 -0.8969
vn 0.0000 -0.5558 -0.8313
vn 0.0000 -0.6593 -0.7518
vn 0.0000 -0.7518 -0.6593
vn -0.0000 -0.8314 -0.5556
vn -0.0000 -0.8968 -0.4425
vn -0.0000 -0.9470 -0.3213
vn -0.0000 -0.9808 -0.1951
vn 0.0000 -0.9979 -0.0654
vn 0.0000 -0.9979 0.0654
vn -0.0000 -0.9808 0.1951
vn -0.0000 -0.9470 0.3213
vn -0.0000 -0.8969 0.4423
vn -0.0000 -0.8314 0.5556
vn 0.0000 -0.7518 0.6593
vn 0.0000 -0.6593 0.7518
vn 0.0000 -0.5555 0.8315
vn 0.0000 -0.4423 0.8969
vn 0.0000 -0.3214 0.9469
vn -0.0000 -0.1953 0.9807
vn -0.0000 -0.0654 0.9979
vn 0.0000 0.0654 0.9979
vn 0.0000 0.1954 0.9807
vn 0.0000 0.3214 0.9469
vn 0.0000 0.4423 0.8969
vn 0.0000 0.5555 0.8315
vn 0.0000 0.6593 0.7518
vn 0.0000 0.7518 0.6593
vn 0.0000 0.8314 0.5556
vn 0.0000 0.8969 0.4423
vn 0.0000 0.9469 0.3215
vn 0.0000 0.9808 0.1949
vn 0.0000 0.9979 0.0654
vn 0.0000 0.9979 -0.0654
vn 0.0000 0.9808 -0.1951
vn 0.0000 0.9470 -0.3213
vn 0.0000 0.8968 -0.4425
vn 0.0000 0.8314 -0.5556
vn 0.0000 0.7518 -0.6593
vn 0.0000 0.6593 -0.7518
vn 0.0000 0.5558 -0.8313
vn 0.0000 0.4423 -0.8969
vn 0.0000 0.3214 -0.9469
vn 0.0000 0.1950 -0.9808
vn 0.0000 0.0654 -0.9979
s off
f 97/1/1 98/2/1 100/3/1 99/4/1
f 99/5/2 100/6/2 104/7/2 103/8/2
f 103/9/3 104/10/3 102/11/3 101/12/3
f 101/13/4 102/14/4 98/15/4 97/16/4
f 99/17/5 103/18/5 101/19/5 97/20/5
f 104/21/6 100/22/6 98/15/6 102/23/6
s 1
f 1/24/7 2/25/7 3/26/7 4/27/7
f 4/27/8 3/26/8 5/28/8 6/29/8
f 6/29/9 5/28/9 7/30/9 8/31/9
f 8/31/10 7/30/10 9/32/10 10/33/10
f 10/33/11 9/32/11 11/34/11 12/35/11
f 12/36/12 11/37/12 13/38/12 14/39/12
f 14/39/13 13/38/13 15/40/13 16/41/13
f 16/41/14 15/40/14 17/42/14 18/43/14
f 18/43/15 17/42/15 19/44/15 20/45/15
f 20/45/16 19/44/16 21/46/16 22/47/16
f 22/47/17 21/46/17 23/48/17 24/49/17
f 24/49/18 23/48/18 25/50/18 26/51/18
f 26/51/19 25/50/19 27/52/19 28/53/19
f 28/53/20 27/52/20 29/54/20 30/55/20
f 30/55/21 29/54/21 31/56/21 32/57/21
f 32/57/22 31/56/22 33/58/22 34/59/22
f 34/60/23 33/61/23 35/62/23 36/63/23
f 36/63/24 35/62/24 37/64/24 38/65/24
f 38/65/25 37/64/25 39/66/25 40/67/25
f 40/67/26 39/66/26 41/68/26 42/69/26
f 42/69/27 41/68/27 43/70/27 44/71/27
f 44/71/28 43/70/28 45/72/28 46/73/28
f 46/73/29 45/72/29 47/74/29 48/75/29
f 48/75/30 47/74/30 49/76/30 50/77/30
f 50/77/31 49/76/31 51/78/31 52/79/31
f 52/79/32 51/78/32 53/80/32 54/81/32
f 54/81/33 53/80/33 55/82/33 56/83/33
f 56/83/34 55/82/34 57/84/34 58/85/34
f 58/86/35 57/87/35 59/88/35 60/89/35
f 60/89/36 59/88/36 61/90/36 62/91/36
f 62/91/37 61/90/37 63/92/37 64/93/37
f 64/93/38 63/92/38 65/94/38 66/95/38
f 66/95/39 65/94/39 67/96/39 68/97/39
f 68/97/40 67/96/40 69/98/40 70/99/40
f 70/99/41 69/98/41 71/100/41 72/101/41
f 72/101/42 71/100/42 73/102/42 74/103/42
f 74/103/43 73/102/43 75/104/43 76/105/43
f 76/105/44 75/104/44 77/106/44 78/107/44
f 78/107/45 77/106/45 79/108/45 80/109/45
f 80/109/46 79/108/46 81/110/46 82/111/46
f 82/111/47 81/110/47 83/112/47 84/113/47
f 84/114/48 83/115/48 85/116/48 86/117/48
f 86/117/49 85/116/49 87/118/49 88/119/49
f 88/119/50 87/118/50 89/120/50 90/121/50
f 90/121/51 89/120/51 91/122/51 92/123/51
f 92/123/52 91/122/52 93/124/52 94/125/52
f 3/126/3 2/127/3 95/128/3 93/129/3 91/130/3 89/131/3 87/132/3 85/133/3 83/134/3 81/135/3 79/136/3 77/137/3 75/138/3 73/139/3 71/140/3 69/141/3 67/142/3 65/143/3 63/144/3 61/145/3 59/146/3 57/147/3 55/148/3 53/149/3 51/150/3 49/151/3 47/152/3 45/153/3 43/154/3 41/155/3 39/156/3 37/157/3 35/158/3 33/159/3 31/160/3 29/161/3 27/162/3 25/163/3 23/164/3 21/165/3 19/166/3 17/167/3 15/168/3 13/169/3 11/170/3 9/171/3 7/172/3 5/173/3
f 94/125/53 93/124/53 95/174/53 96/175/53
f 96/175/54 95/174/54 2/25/54 1/24/54
f 1/176/1 4/177/1 6/178/1 8/179/1 10/180/1 12/181/1 14/182/1 16/183/1 18/184/1 20/185/1 22/186/1 24/187/1 26/188/1 28/189/1 30/190/1 32/191/1 34/192/1 36/193/1 38/194/1 40/195/1 42/196/1 44/197/1 46/198/1 48/199/1 50/200/1 52/201/1 54/202/1 56/203/1 58/204/1 60/205/1 62/206/1 64/207/1 66/208/1 68/209/1 70/210/1 72/211/1 74/212/1 76/213/1 78/214/1 80/215/1 82/216/1 84/217/1 86/218/1 88/219/1 90/220/1 92/221/1 94/222/1 96/223/1
